<svg xmlns="http://www.w3.org/2000/svg" width="510" viewBox="0 0 510 545.25" height="545.25" version="1.0"><defs><clipPath id="a"><path d="M 0.351562 0 L 509.648438 0 L 509.648438 544.5 L 0.351562 544.5 Z M 0.351562 0"/></clipPath><clipPath id="b"><path d="M 176.457031 200 L 339.730469 200 L 339.730469 380.851562 L 176.457031 380.851562 Z M 176.457031 200"/></clipPath><clipPath id="c"><path d="M 271 154.664062 L 336 154.664062 L 336 252 L 271 252 Z M 271 154.664062"/></clipPath><clipPath id="d"><path d="M 180 154.664062 L 245 154.664062 L 245 252 L 180 252 Z M 180 154.664062"/></clipPath><clipPath id="e"><path d="M 258 192 L 339.730469 192 L 339.730469 299 L 258 299 Z M 258 192"/></clipPath><clipPath id="f"><path d="M 176.457031 192 L 259 192 L 259 299 L 176.457031 299 Z M 176.457031 192"/></clipPath></defs><g clip-path="url(#a)" fill="#FFF"><path d="M 0.351562 0 L 509.648438 0 L 509.648438 551.992188 L 0.351562 551.992188 Z M 0.351562 0"/><path d="M 0.351562 0 L 509.648438 0 L 509.648438 544.5 L 0.351562 544.5 Z M 0.351562 0"/><path d="M 0.351562 0 L 509.648438 0 L 509.648438 544.5 L 0.351562 544.5 Z M 0.351562 0"/></g><g clip-path="url(#b)"><path fill="#EFE8D7" d="M 339.351562 281.015625 C 339.351562 346.535156 258.050781 380.851562 258.050781 380.851562 C 258.050781 380.851562 176.753906 345.65625 176.753906 281.015625 C 176.753906 236.5625 213.148438 200.519531 258.050781 200.519531 C 302.953125 200.519531 339.351562 236.5625 339.351562 281.015625"/></g><g clip-path="url(#c)"><path fill="#211C1B" d="M 271.6875 199.746094 C 272.414062 200.164062 277.265625 198.253906 281.519531 194.308594 C 287.5625 188.707031 301.28125 154.664062 308.164062 154.664062 C 312.332031 154.664062 322.269531 165.015625 329.667969 198.097656 C 337.449219 232.898438 335.445312 251.835938 335.445312 251.835938 L 271.6875 199.746094"/></g><path fill="#EFE8D7" d="M 271.6875 201.332031 C 272.304688 201.691406 282.054688 198.460938 285.652344 195.035156 C 290.765625 190.164062 302.96875 160.003906 308.785156 160.003906 C 312.316406 160.003906 323.890625 171.53125 330.152344 200.285156 C 336.734375 230.535156 331.378906 242.148438 331.378906 242.148438 L 271.6875 201.332031"/><path fill="#FAB8B0" d="M 300.820312 211.375 C 300.957031 211.582031 303.910156 203.027344 304.710938 201.066406 C 305.855469 198.285156 308.578125 181.050781 309.875 181.050781 C 310.664062 181.050781 313.246094 187.632812 314.640625 204.070312 C 316.113281 221.359375 314.917969 227.996094 314.917969 227.996094 L 300.820312 211.375"/><g clip-path="url(#d)"><path fill="#211C1B" d="M 244.433594 199.746094 C 243.707031 200.164062 238.859375 198.253906 234.605469 194.308594 C 228.5625 188.707031 214.839844 154.664062 207.960938 154.664062 C 203.792969 154.664062 193.851562 165.015625 186.457031 198.097656 C 178.671875 232.898438 181.132812 251.835938 181.132812 251.835938 L 244.433594 199.746094"/></g><path fill="#EFE8D7" d="M 244.433594 201.332031 C 243.816406 201.691406 234.070312 198.460938 230.472656 195.035156 C 225.359375 190.164062 213.15625 160.003906 207.335938 160.003906 C 203.808594 160.003906 192.230469 171.53125 185.972656 200.285156 C 179.390625 230.535156 184.742188 242.148438 184.742188 242.148438 L 244.433594 201.332031"/><path fill="#FAB8B0" d="M 221.882812 218.304688 C 221.722656 218.511719 215.105469 204.417969 214.195312 202.457031 C 212.90625 199.675781 209.824219 182.4375 208.355469 182.4375 C 207.46875 182.4375 204.546875 189.023438 202.964844 205.460938 C 201.304688 222.746094 202.65625 229.386719 202.65625 229.386719 L 221.882812 218.304688"/><g clip-path="url(#e)"><path fill="#211C1B" d="M 339.351562 280.265625 C 339.351562 233.957031 316.914062 192.253906 258.050781 192.253906 L 258.050781 247.085938 C 258.050781 247.085938 258.636719 225.421875 270.527344 223.625 C 285.796875 221.316406 286.683594 234.707031 299.324219 243.710938 C 311.960938 252.714844 326.59375 246.046875 334.457031 270.027344 C 336.78125 277.109375 338.441406 287.3125 337.324219 298.902344 C 338.632812 292.910156 339.351562 286.691406 339.351562 280.265625"/></g><g clip-path="url(#f)"><path fill="#211C1B" d="M 176.753906 280.265625 C 176.753906 233.957031 202.207031 192.253906 258.050781 192.253906 L 258.050781 247.085938 C 258.050781 247.085938 257.46875 225.421875 245.574219 223.625 C 230.308594 221.316406 229.417969 234.707031 216.78125 243.710938 C 204.140625 252.714844 189.507812 246.046875 181.644531 270.027344 C 179.320312 277.109375 177.664062 287.3125 178.777344 298.902344 C 177.472656 292.910156 176.753906 286.691406 176.753906 280.265625"/></g><path fill="#FFFFFE" d="M 269.058594 256.9375 C 266.796875 256.9375 262.074219 251.03125 263.402344 242.316406 C 264.730469 233.601562 271.613281 227.785156 278.773438 230 C 285.941406 232.214844 290.855469 239.691406 293.777344 243.230469 C 299.765625 250.488281 306.148438 250.609375 304.585938 251.484375 C 303.019531 252.359375 295.566406 252.765625 291.191406 249.949219 C 286.820312 247.132812 282.914062 244.386719 278.625 247.933594 C 274.34375 251.472656 276.042969 256.9375 269.058594 256.9375"/><path fill="#211D1D" d="M 297.726562 255.007812 C 297.726562 255.007812 294.820312 262.558594 287.128906 263.671875 C 280.453125 264.636719 275.082031 259.007812 275.082031 259.007812 C 275.082031 259.007812 278.027344 251.523438 284.363281 250.605469 C 291.105469 249.628906 297.726562 255.007812 297.726562 255.007812"/><path fill="#FFFFFE" d="M 291.414062 256.9375 C 291.414062 259.703125 289.167969 261.945312 286.402344 261.945312 C 283.636719 261.945312 281.394531 259.703125 281.394531 256.9375 C 281.394531 254.171875 283.636719 251.933594 286.402344 251.933594 C 289.167969 251.933594 291.414062 254.171875 291.414062 256.9375"/><path fill="#211D1D" d="M 288.261719 256.9375 C 288.261719 258.121094 287.300781 259.078125 286.117188 259.078125 C 284.933594 259.078125 283.976562 258.121094 283.976562 256.9375 C 283.976562 255.757812 284.933594 254.796875 286.117188 254.796875 C 287.300781 254.796875 288.261719 255.757812 288.261719 256.9375"/><path fill="#FFFFFE" d="M 247.453125 256.9375 C 249.714844 256.9375 254.441406 251.03125 253.109375 242.316406 C 251.777344 233.601562 244.902344 227.785156 237.734375 230 C 230.570312 232.214844 225.652344 239.691406 222.730469 243.230469 C 216.746094 250.488281 210.363281 250.609375 211.929688 251.484375 C 213.496094 252.359375 220.945312 252.765625 225.316406 249.949219 C 229.695312 247.132812 233.597656 244.386719 237.882812 247.933594 C 242.171875 251.472656 240.46875 256.9375 247.453125 256.9375"/><path fill="#211D1D" d="M 218.785156 255.007812 C 218.785156 255.007812 221.6875 262.558594 229.386719 263.671875 C 236.058594 264.636719 241.433594 259.007812 241.433594 259.007812 C 241.433594 259.007812 238.480469 251.523438 232.148438 250.605469 C 225.402344 249.628906 218.785156 255.007812 218.785156 255.007812"/><path fill="#FFFFFE" d="M 225.097656 256.9375 C 225.097656 259.703125 227.339844 261.945312 230.105469 261.945312 C 232.875 261.945312 235.121094 259.703125 235.121094 256.9375 C 235.121094 254.171875 232.875 251.933594 230.105469 251.933594 C 227.339844 251.933594 225.097656 254.171875 225.097656 256.9375"/><path fill="#211D1D" d="M 228.25 256.9375 C 228.25 258.121094 229.207031 259.078125 230.394531 259.078125 C 231.578125 259.078125 232.535156 258.121094 232.535156 256.9375 C 232.535156 255.757812 231.578125 254.796875 230.394531 254.796875 C 229.207031 254.796875 228.25 255.757812 228.25 256.9375"/><path fill="#D8C8AB" d="M 292.800781 294.546875 C 292.871094 294.570312 293.09375 293.257812 294.242188 291.535156 C 294.546875 291.113281 294.90625 290.65625 295.460938 290.269531 C 295.992188 289.890625 296.820312 289.523438 297.792969 289.890625 C 297.984375 289.917969 298.59375 290.316406 298.832031 290.636719 C 299.117188 290.953125 299.292969 291.300781 299.460938 291.652344 C 299.730469 292.359375 299.898438 293.078125 299.949219 293.789062 C 300.152344 296.648438 299.132812 299.273438 298.121094 300.992188 C 297.617188 301.859375 297.105469 302.527344 296.71875 302.957031 C 296.324219 303.386719 296.097656 303.628906 296.097656 303.628906 C 296.097656 303.628906 296.214844 303.320312 296.414062 302.777344 C 296.632812 302.25 296.898438 301.484375 297.1875 300.578125 C 297.757812 298.773438 298.371094 296.289062 298.183594 293.933594 C 298.164062 293.34375 298.035156 292.792969 297.875 292.292969 C 297.765625 292.070312 297.675781 291.835938 297.554688 291.671875 C 297.40625 291.511719 297.527344 291.492188 297.144531 291.304688 C 296.96875 291.203125 296.53125 291.183594 296.140625 291.398438 C 295.742188 291.597656 295.351562 291.898438 295.007812 292.199219 C 293.667969 293.484375 292.839844 294.601562 292.800781 294.546875"/><path fill="#D8C8AB" d="M 224.601562 294.546875 C 224.558594 294.601562 223.734375 293.484375 222.398438 292.199219 C 222.050781 291.898438 221.660156 291.597656 221.261719 291.398438 C 220.871094 291.183594 220.433594 291.203125 220.257812 291.304688 C 219.875 291.492188 219.996094 291.511719 219.847656 291.671875 C 219.726562 291.835938 219.636719 292.070312 219.527344 292.292969 C 219.367188 292.792969 219.238281 293.34375 219.214844 293.933594 C 219.027344 296.289062 219.644531 298.773438 220.214844 300.578125 C 220.503906 301.484375 220.773438 302.25 220.988281 302.777344 C 221.1875 303.320312 221.300781 303.628906 221.300781 303.628906 C 221.300781 303.628906 221.078125 303.386719 220.683594 302.957031 C 220.292969 302.527344 219.785156 301.859375 219.28125 300.992188 C 218.269531 299.273438 217.25 296.648438 217.449219 293.789062 C 217.503906 293.078125 217.671875 292.359375 217.941406 291.652344 C 218.109375 291.300781 218.285156 290.953125 218.574219 290.636719 C 218.808594 290.316406 219.417969 289.917969 219.609375 289.890625 C 220.582031 289.523438 221.410156 289.890625 221.945312 290.269531 C 222.496094 290.65625 222.851562 291.113281 223.160156 291.535156 C 224.308594 293.257812 224.53125 294.570312 224.601562 294.546875"/><path fill="#FFFFFE" d="M 262.496094 323.546875 C 270.816406 322.6875 275.664062 322.054688 283.332031 318.746094 C 287.992188 312.433594 290.539062 305.125 290.539062 305.125 C 290.539062 305.125 282.082031 280.460938 275.941406 270.011719 C 269.800781 259.558594 257.9375 260.058594 257.9375 260.058594 C 257.9375 260.058594 246.074219 259.558594 239.933594 270.011719 C 233.789062 280.460938 225.5625 305.226562 225.5625 305.226562 C 225.5625 305.226562 227.164062 308.269531 230.4375 316.308594 C 240.324219 325.171875 251.1875 324.722656 262.496094 323.546875"/><path fill="#211C1B" d="M 258.046875 315.203125 C 258.046875 315.203125 270.226562 322.867188 278.296875 319.601562 C 286.367188 316.34375 293.527344 297.242188 293.527344 297.242188 C 293.527344 297.242188 288.148438 314.230469 285.761719 322.070312 C 283.679688 328.910156 279.332031 344.441406 258.046875 344.441406 L 258.046875 315.203125"/><path fill="#211C1B" d="M 258.054688 315.203125 C 258.054688 315.203125 245.875 322.867188 237.808594 319.601562 C 229.734375 316.34375 222.578125 297.242188 222.578125 297.242188 C 222.578125 297.242188 227.953125 314.230469 230.339844 322.070312 C 232.421875 328.910156 236.769531 344.441406 258.054688 344.441406 L 258.054688 315.203125"/><path fill="#211C1B" d="M 258.050781 283.011719 C 258.050781 283.011719 275.15625 280.496094 275.15625 292.523438 C 275.15625 304.550781 258.050781 309.480469 258.050781 309.480469 L 258.050781 283.011719"/><path fill="#171514" d="M 272.320312 295.503906 C 272.902344 297.371094 271.234375 299.664062 268.589844 300.621094 C 265.953125 301.582031 263.339844 300.847656 262.757812 298.980469 C 262.175781 297.117188 263.84375 294.824219 266.488281 293.863281 C 269.125 292.902344 271.738281 293.636719 272.320312 295.503906"/><path fill="#211C1B" d="M 258.050781 283.011719 C 258.050781 283.011719 240.945312 280.496094 240.945312 292.523438 C 240.945312 304.550781 258.050781 309.480469 258.050781 309.480469 L 258.050781 283.011719"/><path fill="#171514" d="M 243.78125 295.503906 C 243.203125 297.371094 244.867188 299.664062 247.511719 300.621094 C 250.148438 301.582031 252.761719 300.847656 253.34375 298.980469 C 253.925781 297.117188 252.257812 294.824219 249.617188 293.863281 C 246.976562 292.902344 244.363281 293.636719 243.78125 295.503906"/><path fill="#211C1B" d="M 275.664062 324.621094 L 240.441406 324.621094 L 240.441406 339.476562 L 275.664062 339.476562 L 275.664062 324.621094"/><path fill="#211C1B" d="M 258.050781 358.917969 C 267.777344 358.917969 275.664062 350.210938 275.664062 339.476562 L 240.441406 339.476562 C 240.441406 350.210938 248.324219 358.917969 258.050781 358.917969"/><path fill="#FAB8B0" d="M 258.148438 319.652344 C 258.148438 319.652344 248.074219 324.035156 241.804688 323.910156 C 241.804688 323.910156 241.804688 325.636719 243.1875 327.425781 C 243.644531 328.015625 243.902344 340.246094 243.988281 340.804688 C 244.222656 342.285156 244.308594 356.40625 258.148438 356.40625 C 271.984375 356.40625 272.066406 342.285156 272.300781 340.804688 C 272.390625 340.246094 272.644531 328.015625 273.101562 327.425781 C 274.492188 325.636719 274.488281 323.910156 274.488281 323.910156 C 268.214844 324.035156 258.148438 319.652344 258.148438 319.652344"/><path fill="#F6848A" d="M 258.082031 351.804688 C 257.378906 351.804688 256.808594 329.394531 256.808594 329.394531 C 256.808594 328.308594 257.378906 327.425781 258.082031 327.425781 C 258.785156 327.425781 259.359375 328.308594 259.359375 329.394531 C 259.359375 329.394531 258.785156 351.804688 258.082031 351.804688"/><path fill="#F6848A" d="M 258.148438 331.703125 C 264.875 331.703125 270.652344 328.476562 273.15625 323.875 C 266.886719 323.460938 258.148438 319.652344 258.148438 319.652344 C 258.148438 319.652344 249.402344 323.460938 243.136719 323.875 C 245.640625 328.476562 251.414062 331.703125 258.148438 331.703125"/><path fill="#211C1B" d="M 259.097656 307.003906 L 257.003906 307.003906 L 257.003906 316.308594 L 259.097656 316.308594 L 259.097656 307.003906"/><path fill="#211C1B" d="M 271.207031 312.710938 C 271.207031 313.085938 270.902344 313.386719 270.527344 313.386719 C 270.152344 313.386719 269.847656 313.085938 269.847656 312.710938 C 269.847656 312.339844 270.152344 312.035156 270.527344 312.035156 C 270.902344 312.035156 271.207031 312.339844 271.207031 312.710938"/><path fill="#211C1B" d="M 274.324219 307.003906 C 274.324219 307.289062 274.09375 307.523438 273.808594 307.523438 C 273.523438 307.523438 273.289062 307.289062 273.289062 307.003906 C 273.289062 306.71875 273.523438 306.488281 273.808594 306.488281 C 274.09375 306.488281 274.324219 306.71875 274.324219 307.003906"/><path fill="#211C1B" d="M 275.003906 314.066406 C 275.003906 314.441406 274.699219 314.746094 274.324219 314.746094 C 273.953125 314.746094 273.648438 314.441406 273.648438 314.066406 C 273.648438 313.691406 273.953125 313.386719 274.324219 313.386719 C 274.699219 313.386719 275.003906 313.691406 275.003906 314.066406"/><path fill="#211C1B" d="M 265.71875 311.25 C 265.71875 311.625 265.417969 311.929688 265.039062 311.929688 C 264.664062 311.929688 264.363281 311.625 264.363281 311.25 C 264.363281 310.875 264.664062 310.574219 265.039062 310.574219 C 265.417969 310.574219 265.71875 310.875 265.71875 311.25"/><path fill="#211C1B" d="M 267.285156 315.714844 C 267.285156 315.984375 267.066406 316.207031 266.792969 316.207031 C 266.523438 316.207031 266.304688 315.984375 266.304688 315.714844 C 266.304688 315.445312 266.523438 315.222656 266.792969 315.222656 C 267.066406 315.222656 267.285156 315.445312 267.285156 315.714844"/><path fill="#211C1B" d="M 249.730469 315.0625 C 249.730469 315.308594 249.535156 315.507812 249.285156 315.507812 C 249.042969 315.507812 248.84375 315.308594 248.84375 315.0625 C 248.84375 314.820312 249.042969 314.621094 249.285156 314.621094 C 249.535156 314.621094 249.730469 314.820312 249.730469 315.0625"/><path fill="#211C1B" d="M 245.996094 309.414062 C 245.996094 309.789062 245.691406 310.09375 245.320312 310.09375 C 244.945312 310.09375 244.640625 309.789062 244.640625 309.414062 C 244.640625 309.039062 244.945312 308.738281 245.320312 308.738281 C 245.691406 308.738281 245.996094 309.039062 245.996094 309.414062"/><path fill="#211C1B" d="M 245.320312 315.300781 C 245.320312 315.675781 245.011719 315.980469 244.640625 315.980469 C 244.265625 315.980469 243.960938 315.675781 243.960938 315.300781 C 243.960938 314.925781 244.265625 314.621094 244.640625 314.621094 C 245.011719 314.621094 245.320312 314.925781 245.320312 315.300781"/><path fill="#211C1B" d="M 240.992188 311.585938 C 240.992188 311.964844 240.691406 312.265625 240.316406 312.265625 C 239.941406 312.265625 239.636719 311.964844 239.636719 311.585938 C 239.636719 311.214844 239.941406 310.910156 240.316406 310.910156 C 240.691406 310.910156 240.992188 311.214844 240.992188 311.585938"/><path fill="#211C1B" d="M 240.179688 306.527344 C 240.179688 306.824219 239.9375 307.070312 239.636719 307.070312 C 239.335938 307.070312 239.089844 306.824219 239.089844 306.527344 C 239.089844 306.226562 239.335938 305.980469 239.636719 305.980469 C 239.9375 305.980469 240.179688 306.226562 240.179688 306.527344"/><g><g><g><path d="M 19.921875 -25.75 C 21.210938 -25.75 22.398438 -25.476562 23.484375 -24.9375 C 24.578125 -24.40625 25.441406 -23.65625 26.078125 -22.6875 C 26.710938 -21.71875 27.03125 -20.632812 27.03125 -19.4375 C 27.03125 -16.257812 25.59375 -14.257812 22.71875 -13.4375 L 22.71875 -13.296875 C 25.988281 -12.546875 27.625 -10.394531 27.625 -6.84375 C 27.625 -5.5 27.289062 -4.304688 26.625 -3.265625 C 25.96875 -2.234375 25.066406 -1.429688 23.921875 -0.859375 C 22.773438 -0.285156 21.515625 0 20.140625 0 L 2.765625 0 L 2.765625 -25.75 Z M 11.046875 -15.71875 L 16.734375 -15.71875 C 17.285156 -15.71875 17.738281 -15.910156 18.09375 -16.296875 C 18.457031 -16.691406 18.640625 -17.175781 18.640625 -17.75 L 18.640625 -18.125 C 18.640625 -18.664062 18.453125 -19.128906 18.078125 -19.515625 C 17.703125 -19.910156 17.253906 -20.109375 16.734375 -20.109375 L 11.046875 -20.109375 Z M 11.046875 -5.984375 L 17.328125 -5.984375 C 17.878906 -5.984375 18.335938 -6.175781 18.703125 -6.5625 C 19.066406 -6.957031 19.25 -7.441406 19.25 -8.015625 L 19.25 -8.390625 C 19.25 -8.960938 19.066406 -9.441406 18.703125 -9.828125 C 18.335938 -10.210938 17.878906 -10.40625 17.328125 -10.40625 L 11.046875 -10.40625 Z M 11.046875 -5.984375" transform="translate(75.13 144.926)"/></g></g></g><g><g><g><path d="M 3.140625 0 L 3.140625 -25.75 L 11.421875 -25.75 L 11.421875 0 Z M 3.140625 0" transform="translate(104.256 144.926)"/></g></g></g><g><g><g><path d="M 15.71875 -26.203125 C 18.195312 -26.203125 20.421875 -25.828125 22.390625 -25.078125 C 24.359375 -24.328125 25.921875 -23.222656 27.078125 -21.765625 C 28.242188 -20.304688 28.828125 -18.53125 28.828125 -16.4375 L 20.921875 -16.4375 C 20.921875 -17.507812 20.445312 -18.375 19.5 -19.03125 C 18.550781 -19.695312 17.40625 -20.03125 16.0625 -20.03125 C 14.113281 -20.03125 12.640625 -19.507812 11.640625 -18.46875 C 10.640625 -17.4375 10.140625 -15.972656 10.140625 -14.078125 L 10.140625 -11.6875 C 10.140625 -9.78125 10.640625 -8.3125 11.640625 -7.28125 C 12.640625 -6.25 14.113281 -5.734375 16.0625 -5.734375 C 17.40625 -5.734375 18.550781 -6.050781 19.5 -6.6875 C 20.445312 -7.320312 20.921875 -8.140625 20.921875 -9.140625 L 15.09375 -9.140625 L 15.09375 -14.375 L 28.828125 -14.375 L 28.828125 0 L 24.5625 0 L 23.734375 -2.546875 C 21.390625 -0.546875 18.320312 0.453125 14.53125 0.453125 C 10.257812 0.453125 7.050781 -0.660156 4.90625 -2.890625 C 2.757812 -5.128906 1.6875 -8.457031 1.6875 -12.875 C 1.6875 -17.25 2.898438 -20.5625 5.328125 -22.8125 C 7.765625 -25.070312 11.226562 -26.203125 15.71875 -26.203125 Z M 15.71875 -26.203125" transform="translate(118.819 144.926)"/></g></g></g><g><g><g><path d="M 13.921875 -25.75 C 22.929688 -25.75 27.4375 -21.457031 27.4375 -12.875 C 27.4375 -4.289062 22.929688 0 13.921875 0 L 2.765625 0 L 2.765625 -25.75 Z M 11.046875 -6.171875 L 13.78125 -6.171875 C 17.25 -6.171875 18.984375 -8.03125 18.984375 -11.75 L 18.984375 -14 C 18.984375 -17.71875 17.25 -19.578125 13.78125 -19.578125 L 11.046875 -19.578125 Z M 11.046875 -6.171875" transform="translate(162.47 144.926)"/></g></g></g><g><g><g><path d="M 15.578125 -26.203125 C 20.015625 -26.203125 23.441406 -25.066406 25.859375 -22.796875 C 28.285156 -20.523438 29.5 -17.21875 29.5 -12.875 C 29.5 -8.53125 28.285156 -5.222656 25.859375 -2.953125 C 23.441406 -0.679688 20.015625 0.453125 15.578125 0.453125 C 11.128906 0.453125 7.703125 -0.675781 5.296875 -2.9375 C 2.890625 -5.195312 1.6875 -8.507812 1.6875 -12.875 C 1.6875 -17.25 2.890625 -20.5625 5.296875 -22.8125 C 7.703125 -25.070312 11.128906 -26.203125 15.578125 -26.203125 Z M 15.578125 -20.03125 C 13.804688 -20.03125 12.457031 -19.492188 11.53125 -18.421875 C 10.601562 -17.347656 10.140625 -15.898438 10.140625 -14.078125 L 10.140625 -11.6875 C 10.140625 -9.863281 10.601562 -8.414062 11.53125 -7.34375 C 12.457031 -6.269531 13.804688 -5.734375 15.578125 -5.734375 C 17.347656 -5.734375 18.703125 -6.269531 19.640625 -7.34375 C 20.578125 -8.414062 21.046875 -9.863281 21.046875 -11.6875 L 21.046875 -14.078125 C 21.046875 -15.898438 20.578125 -17.347656 19.640625 -18.421875 C 18.703125 -19.492188 17.347656 -20.03125 15.578125 -20.03125 Z M 15.578125 -20.03125" transform="translate(191.596 144.926)"/></g></g></g><g><g><g><path d="M 15.71875 -26.203125 C 18.195312 -26.203125 20.421875 -25.828125 22.390625 -25.078125 C 24.359375 -24.328125 25.921875 -23.222656 27.078125 -21.765625 C 28.242188 -20.304688 28.828125 -18.53125 28.828125 -16.4375 L 20.921875 -16.4375 C 20.921875 -17.507812 20.445312 -18.375 19.5 -19.03125 C 18.550781 -19.695312 17.40625 -20.03125 16.0625 -20.03125 C 14.113281 -20.03125 12.640625 -19.507812 11.640625 -18.46875 C 10.640625 -17.4375 10.140625 -15.972656 10.140625 -14.078125 L 10.140625 -11.6875 C 10.140625 -9.78125 10.640625 -8.3125 11.640625 -7.28125 C 12.640625 -6.25 14.113281 -5.734375 16.0625 -5.734375 C 17.40625 -5.734375 18.550781 -6.050781 19.5 -6.6875 C 20.445312 -7.320312 20.921875 -8.140625 20.921875 -9.140625 L 15.09375 -9.140625 L 15.09375 -14.375 L 28.828125 -14.375 L 28.828125 0 L 24.5625 0 L 23.734375 -2.546875 C 21.390625 -0.546875 18.320312 0.453125 14.53125 0.453125 C 10.257812 0.453125 7.050781 -0.660156 4.90625 -2.890625 C 2.757812 -5.128906 1.6875 -8.457031 1.6875 -12.875 C 1.6875 -17.25 2.898438 -20.5625 5.328125 -22.8125 C 7.765625 -25.070312 11.226562 -26.203125 15.71875 -26.203125 Z M 15.71875 -26.203125" transform="translate(222.781 144.926)"/></g></g></g><g><g><g><path d="M 2.765625 -25.75 L 25.046875 -25.75 L 25.046875 -19.578125 L 11.046875 -19.578125 L 11.046875 -16.015625 L 23.03125 -16.015625 L 23.03125 -10.109375 L 11.046875 -10.109375 L 11.046875 -6.171875 L 25.3125 -6.171875 L 25.3125 0 L 2.765625 0 Z M 2.765625 -25.75" transform="translate(266.433 144.926)"/></g></g></g><g><g><g><path d="M 9.765625 0 L 0.640625 -25.75 L 9.46875 -25.75 L 14.640625 -8.53125 L 14.78125 -8.53125 L 19.984375 -25.75 L 28.453125 -25.75 L 19.359375 0 Z M 9.765625 0" transform="translate(293.462 144.926)"/></g></g></g><g><g><g><path d="M 2.765625 -25.75 L 25.046875 -25.75 L 25.046875 -19.578125 L 11.046875 -19.578125 L 11.046875 -16.015625 L 23.03125 -16.015625 L 23.03125 -10.109375 L 11.046875 -10.109375 L 11.046875 -6.171875 L 25.3125 -6.171875 L 25.3125 0 L 2.765625 0 Z M 2.765625 -25.75" transform="translate(322.588 144.926)"/></g></g></g><g><g><g><path d="M 21.1875 0 L 10.375 -12.5 L 10.375 0 L 2.765625 0 L 2.765625 -25.75 L 10 -25.75 L 20.8125 -13.0625 L 20.8125 -25.75 L 28.421875 -25.75 L 28.421875 0 Z M 21.1875 0" transform="translate(349.617 144.926)"/></g></g></g><g><g><g><path d="M 17.59375 -19.171875 L 17.59375 0 L 9.328125 0 L 9.328125 -19.171875 L 0.859375 -19.171875 L 0.859375 -25.75 L 26.015625 -25.75 L 26.015625 -19.171875 Z M 17.59375 -19.171875" transform="translate(380.802 144.926)"/></g></g></g><g><g><g><path d="M 13.59375 -26.203125 C 16.882812 -26.203125 19.585938 -25.535156 21.703125 -24.203125 C 23.828125 -22.867188 24.914062 -20.890625 24.96875 -18.265625 L 24.96875 -17.8125 L 17.21875 -17.8125 L 17.21875 -17.96875 C 17.21875 -18.71875 16.941406 -19.34375 16.390625 -19.84375 C 15.847656 -20.34375 15.015625 -20.59375 13.890625 -20.59375 C 12.785156 -20.59375 11.941406 -20.429688 11.359375 -20.109375 C 10.773438 -19.785156 10.484375 -19.382812 10.484375 -18.90625 C 10.484375 -18.226562 10.878906 -17.726562 11.671875 -17.40625 C 12.472656 -17.082031 13.757812 -16.742188 15.53125 -16.390625 C 17.601562 -15.972656 19.304688 -15.53125 20.640625 -15.0625 C 21.984375 -14.601562 23.148438 -13.847656 24.140625 -12.796875 C 25.140625 -11.753906 25.65625 -10.332031 25.6875 -8.53125 C 25.6875 -5.488281 24.65625 -3.226562 22.59375 -1.75 C 20.53125 -0.28125 17.78125 0.453125 14.34375 0.453125 C 10.320312 0.453125 7.191406 -0.21875 4.953125 -1.5625 C 2.722656 -2.914062 1.609375 -5.300781 1.609375 -8.71875 L 9.4375 -8.71875 C 9.4375 -7.425781 9.769531 -6.5625 10.4375 -6.125 C 11.113281 -5.6875 12.164062 -5.46875 13.59375 -5.46875 C 14.632812 -5.46875 15.5 -5.578125 16.1875 -5.796875 C 16.875 -6.023438 17.21875 -6.488281 17.21875 -7.1875 C 17.21875 -7.8125 16.835938 -8.28125 16.078125 -8.59375 C 15.316406 -8.90625 14.078125 -9.234375 12.359375 -9.578125 C 10.253906 -10.035156 8.515625 -10.503906 7.140625 -10.984375 C 5.773438 -11.472656 4.578125 -12.28125 3.546875 -13.40625 C 2.523438 -14.53125 2.015625 -16.050781 2.015625 -17.96875 C 2.015625 -20.789062 3.109375 -22.867188 5.296875 -24.203125 C 7.484375 -25.535156 10.25 -26.203125 13.59375 -26.203125 Z M 13.59375 -26.203125" transform="translate(407.831 144.926)"/></g></g></g><g><g><g><path d="M 21.609375 0 L 19.140625 0 L 14.828125 -14.3125 C 14.617188 -14.945312 14.390625 -15.75 14.140625 -16.71875 C 13.890625 -17.6875 13.757812 -18.265625 13.75 -18.453125 C 13.53125 -17.171875 13.1875 -15.765625 12.71875 -14.234375 L 8.546875 0 L 6.078125 0 L 0.390625 -21.375 L 3.03125 -21.375 L 6.40625 -8.171875 C 6.875 -6.316406 7.21875 -4.640625 7.4375 -3.140625 C 7.695312 -4.929688 8.082031 -6.675781 8.59375 -8.375 L 12.4375 -21.375 L 15.0625 -21.375 L 19.09375 -8.265625 C 19.550781 -6.753906 19.941406 -5.046875 20.265625 -3.140625 C 20.453125 -4.523438 20.804688 -6.210938 21.328125 -8.203125 L 24.6875 -21.375 L 27.328125 -21.375 Z M 21.609375 0" transform="translate(98.09 410.36)"/></g></g><g><g><path d="M 13.546875 0 L 13.546875 -10.375 C 13.546875 -11.675781 13.25 -12.648438 12.65625 -13.296875 C 12.0625 -13.941406 11.128906 -14.265625 9.859375 -14.265625 C 8.171875 -14.265625 6.9375 -13.804688 6.15625 -12.890625 C 5.382812 -11.972656 5 -10.46875 5 -8.375 L 5 0 L 2.578125 0 L 2.578125 -22.75 L 5 -22.75 L 5 -15.875 C 5 -15.039062 4.960938 -14.351562 4.890625 -13.8125 L 5.03125 -13.8125 C 5.507812 -14.582031 6.1875 -15.1875 7.0625 -15.625 C 7.945312 -16.070312 8.957031 -16.296875 10.09375 -16.296875 C 12.050781 -16.296875 13.519531 -15.828125 14.5 -14.890625 C 15.476562 -13.960938 15.96875 -12.484375 15.96875 -10.453125 L 15.96875 0 Z M 13.546875 0" transform="translate(125.826 410.36)"/></g></g><g><g><path d="M 9.34375 0.296875 C 6.976562 0.296875 5.109375 -0.421875 3.734375 -1.859375 C 2.367188 -3.304688 1.6875 -5.316406 1.6875 -7.890625 C 1.6875 -10.472656 2.320312 -12.523438 3.59375 -14.046875 C 4.863281 -15.566406 6.570312 -16.328125 8.71875 -16.328125 C 10.726562 -16.328125 12.316406 -15.664062 13.484375 -14.34375 C 14.648438 -13.019531 15.234375 -11.273438 15.234375 -9.109375 L 15.234375 -7.578125 L 4.203125 -7.578125 C 4.242188 -5.691406 4.710938 -4.257812 5.609375 -3.28125 C 6.515625 -2.3125 7.789062 -1.828125 9.4375 -1.828125 C 11.15625 -1.828125 12.859375 -2.1875 14.546875 -2.90625 L 14.546875 -0.75 C 13.691406 -0.375 12.878906 -0.109375 12.109375 0.046875 C 11.347656 0.210938 10.425781 0.296875 9.34375 0.296875 Z M 8.6875 -14.296875 C 7.394531 -14.296875 6.363281 -13.875 5.59375 -13.03125 C 4.832031 -12.195312 4.382812 -11.035156 4.25 -9.546875 L 12.640625 -9.546875 C 12.640625 -11.078125 12.296875 -12.25 11.609375 -13.0625 C 10.929688 -13.882812 9.957031 -14.296875 8.6875 -14.296875 Z M 8.6875 -14.296875" transform="translate(144.214 410.36)"/></g></g><g><g><path d="M 13.546875 0 L 13.546875 -10.375 C 13.546875 -11.675781 13.25 -12.648438 12.65625 -13.296875 C 12.0625 -13.941406 11.128906 -14.265625 9.859375 -14.265625 C 8.179688 -14.265625 6.953125 -13.8125 6.171875 -12.90625 C 5.390625 -12 5 -10.5 5 -8.40625 L 5 0 L 2.578125 0 L 2.578125 -16.03125 L 4.546875 -16.03125 L 4.9375 -13.828125 L 5.0625 -13.828125 C 5.5625 -14.617188 6.257812 -15.234375 7.15625 -15.671875 C 8.050781 -16.109375 9.050781 -16.328125 10.15625 -16.328125 C 12.082031 -16.328125 13.53125 -15.859375 14.5 -14.921875 C 15.476562 -13.992188 15.96875 -12.503906 15.96875 -10.453125 L 15.96875 0 Z M 13.546875 0" transform="translate(161.022 410.36)"/></g></g><g><g><path d="M 8.375 -10.6875 L 14.078125 -21.375 L 16.78125 -21.375 L 9.640625 -8.296875 L 9.640625 0 L 7.125 0 L 7.125 -8.171875 L 0 -21.375 L 2.71875 -21.375 Z M 8.375 -10.6875" transform="translate(187.192 410.36)"/></g></g><g><g><path d="M 16.40625 -8.03125 C 16.40625 -5.414062 15.75 -3.375 14.4375 -1.90625 C 13.125 -0.4375 11.304688 0.296875 8.984375 0.296875 C 7.546875 0.296875 6.269531 -0.0351562 5.15625 -0.703125 C 4.050781 -1.378906 3.195312 -2.347656 2.59375 -3.609375 C 1.988281 -4.867188 1.6875 -6.34375 1.6875 -8.03125 C 1.6875 -10.644531 2.335938 -12.679688 3.640625 -14.140625 C 4.953125 -15.597656 6.765625 -16.328125 9.078125 -16.328125 C 11.328125 -16.328125 13.109375 -15.578125 14.421875 -14.078125 C 15.742188 -12.585938 16.40625 -10.570312 16.40625 -8.03125 Z M 4.203125 -8.03125 C 4.203125 -5.976562 4.609375 -4.414062 5.421875 -3.34375 C 6.242188 -2.269531 7.445312 -1.734375 9.03125 -1.734375 C 10.625 -1.734375 11.832031 -2.265625 12.65625 -3.328125 C 13.476562 -4.398438 13.890625 -5.96875 13.890625 -8.03125 C 13.890625 -10.070312 13.476562 -11.617188 12.65625 -12.671875 C 11.832031 -13.734375 10.617188 -14.265625 9.015625 -14.265625 C 7.421875 -14.265625 6.21875 -13.738281 5.40625 -12.6875 C 4.601562 -11.644531 4.203125 -10.09375 4.203125 -8.03125 Z M 4.203125 -8.03125" transform="translate(203.97 410.36)"/></g></g><g><g><path d="M 4.859375 -16.03125 L 4.859375 -5.625 C 4.859375 -4.320312 5.15625 -3.347656 5.75 -2.703125 C 6.34375 -2.054688 7.273438 -1.734375 8.546875 -1.734375 C 10.222656 -1.734375 11.445312 -2.191406 12.21875 -3.109375 C 12.988281 -4.023438 13.375 -5.523438 13.375 -7.609375 L 13.375 -16.03125 L 15.8125 -16.03125 L 15.8125 0 L 13.8125 0 L 13.453125 -2.15625 L 13.328125 -2.15625 C 12.828125 -1.363281 12.132812 -0.753906 11.25 -0.328125 C 10.375 0.0859375 9.367188 0.296875 8.234375 0.296875 C 6.285156 0.296875 4.828125 -0.164062 3.859375 -1.09375 C 2.890625 -2.019531 2.40625 -3.503906 2.40625 -5.546875 L 2.40625 -16.03125 Z M 4.859375 -16.03125" transform="translate(222.066 410.36)"/></g></g><g><g><path d="M 12.34375 -11.203125 L 19.609375 -11.203125 L 19.609375 -0.796875 C 18.484375 -0.441406 17.332031 -0.171875 16.15625 0.015625 C 14.988281 0.203125 13.632812 0.296875 12.09375 0.296875 C 8.851562 0.296875 6.332031 -0.664062 4.53125 -2.59375 C 2.726562 -4.519531 1.828125 -7.21875 1.828125 -10.6875 C 1.828125 -12.914062 2.269531 -14.863281 3.15625 -16.53125 C 4.050781 -18.207031 5.335938 -19.484375 7.015625 -20.359375 C 8.691406 -21.242188 10.660156 -21.6875 12.921875 -21.6875 C 15.203125 -21.6875 17.328125 -21.269531 19.296875 -20.4375 L 18.328125 -18.234375 C 16.398438 -19.054688 14.539062 -19.46875 12.75 -19.46875 C 10.144531 -19.46875 8.109375 -18.691406 6.640625 -17.140625 C 5.179688 -15.585938 4.453125 -13.4375 4.453125 -10.6875 C 4.453125 -7.800781 5.15625 -5.613281 6.5625 -4.125 C 7.976562 -2.632812 10.050781 -1.890625 12.78125 -1.890625 C 14.257812 -1.890625 15.707031 -2.0625 17.125 -2.40625 L 17.125 -8.984375 L 12.34375 -8.984375 Z M 12.34375 -11.203125" transform="translate(248.236 410.36)"/></g></g><g><g><path d="M 16.40625 -8.03125 C 16.40625 -5.414062 15.75 -3.375 14.4375 -1.90625 C 13.125 -0.4375 11.304688 0.296875 8.984375 0.296875 C 7.546875 0.296875 6.269531 -0.0351562 5.15625 -0.703125 C 4.050781 -1.378906 3.195312 -2.347656 2.59375 -3.609375 C 1.988281 -4.867188 1.6875 -6.34375 1.6875 -8.03125 C 1.6875 -10.644531 2.335938 -12.679688 3.640625 -14.140625 C 4.953125 -15.597656 6.765625 -16.328125 9.078125 -16.328125 C 11.328125 -16.328125 13.109375 -15.578125 14.421875 -14.078125 C 15.742188 -12.585938 16.40625 -10.570312 16.40625 -8.03125 Z M 4.203125 -8.03125 C 4.203125 -5.976562 4.609375 -4.414062 5.421875 -3.34375 C 6.242188 -2.269531 7.445312 -1.734375 9.03125 -1.734375 C 10.625 -1.734375 11.832031 -2.265625 12.65625 -3.328125 C 13.476562 -4.398438 13.890625 -5.96875 13.890625 -8.03125 C 13.890625 -10.070312 13.476562 -11.617188 12.65625 -12.671875 C 11.832031 -13.734375 10.617188 -14.265625 9.015625 -14.265625 C 7.421875 -14.265625 6.21875 -13.738281 5.40625 -12.6875 C 4.601562 -11.644531 4.203125 -10.09375 4.203125 -8.03125 Z M 4.203125 -8.03125" transform="translate(270.047 410.36)"/></g></g><g><g><path d="M 7.75 -1.71875 C 8.175781 -1.71875 8.585938 -1.75 8.984375 -1.8125 C 9.390625 -1.875 9.710938 -1.9375 9.953125 -2 L 9.953125 -0.140625 C 9.679688 -0.015625 9.289062 0.0859375 8.78125 0.171875 C 8.269531 0.253906 7.8125 0.296875 7.40625 0.296875 C 4.300781 0.296875 2.75 -1.335938 2.75 -4.609375 L 2.75 -14.140625 L 0.453125 -14.140625 L 0.453125 -15.3125 L 2.75 -16.328125 L 3.765625 -19.75 L 5.171875 -19.75 L 5.171875 -16.03125 L 9.828125 -16.03125 L 9.828125 -14.140625 L 5.171875 -14.140625 L 5.171875 -4.703125 C 5.171875 -3.742188 5.398438 -3.003906 5.859375 -2.484375 C 6.316406 -1.972656 6.945312 -1.71875 7.75 -1.71875 Z M 7.75 -1.71875" transform="translate(288.142 410.36)"/></g></g><g><g><path d="M 7.75 -1.71875 C 8.175781 -1.71875 8.585938 -1.75 8.984375 -1.8125 C 9.390625 -1.875 9.710938 -1.9375 9.953125 -2 L 9.953125 -0.140625 C 9.679688 -0.015625 9.289062 0.0859375 8.78125 0.171875 C 8.269531 0.253906 7.8125 0.296875 7.40625 0.296875 C 4.300781 0.296875 2.75 -1.335938 2.75 -4.609375 L 2.75 -14.140625 L 0.453125 -14.140625 L 0.453125 -15.3125 L 2.75 -16.328125 L 3.765625 -19.75 L 5.171875 -19.75 L 5.171875 -16.03125 L 9.828125 -16.03125 L 9.828125 -14.140625 L 5.171875 -14.140625 L 5.171875 -4.703125 C 5.171875 -3.742188 5.398438 -3.003906 5.859375 -2.484375 C 6.316406 -1.972656 6.945312 -1.71875 7.75 -1.71875 Z M 7.75 -1.71875" transform="translate(298.718 410.36)"/></g></g><g><g><path d="M 12.4375 0 L 11.953125 -2.28125 L 11.828125 -2.28125 C 11.023438 -1.28125 10.226562 -0.597656 9.4375 -0.234375 C 8.644531 0.117188 7.65625 0.296875 6.46875 0.296875 C 4.875 0.296875 3.625 -0.113281 2.71875 -0.9375 C 1.820312 -1.757812 1.375 -2.925781 1.375 -4.4375 C 1.375 -7.664062 3.960938 -9.359375 9.140625 -9.515625 L 11.859375 -9.609375 L 11.859375 -10.609375 C 11.859375 -11.859375 11.585938 -12.785156 11.046875 -13.390625 C 10.503906 -13.992188 9.640625 -14.296875 8.453125 -14.296875 C 7.117188 -14.296875 5.609375 -13.882812 3.921875 -13.0625 L 3.171875 -14.921875 C 3.960938 -15.347656 4.828125 -15.679688 5.765625 -15.921875 C 6.710938 -16.171875 7.65625 -16.296875 8.59375 -16.296875 C 10.507812 -16.296875 11.925781 -15.867188 12.84375 -15.015625 C 13.769531 -14.171875 14.234375 -12.8125 14.234375 -10.9375 L 14.234375 0 Z M 6.953125 -1.71875 C 8.460938 -1.71875 9.644531 -2.128906 10.5 -2.953125 C 11.363281 -3.785156 11.796875 -4.945312 11.796875 -6.4375 L 11.796875 -7.890625 L 9.375 -7.78125 C 7.445312 -7.707031 6.054688 -7.40625 5.203125 -6.875 C 4.347656 -6.34375 3.921875 -5.519531 3.921875 -4.40625 C 3.921875 -3.53125 4.1875 -2.863281 4.71875 -2.40625 C 5.25 -1.945312 5.992188 -1.71875 6.953125 -1.71875 Z M 6.953125 -1.71875" transform="translate(309.294 410.36)"/></g></g><g><g><path d="M 18.390625 0 L 15.453125 0 L 7.65625 -10.375 L 5.421875 -8.375 L 5.421875 0 L 2.9375 0 L 2.9375 -21.375 L 5.421875 -21.375 L 5.421875 -10.78125 L 15.125 -21.375 L 18.0625 -21.375 L 9.46875 -12.09375 Z M 18.390625 0" transform="translate(333.738 410.36)"/></g></g><g><g><path d="M 13.546875 0 L 13.546875 -10.375 C 13.546875 -11.675781 13.25 -12.648438 12.65625 -13.296875 C 12.0625 -13.941406 11.128906 -14.265625 9.859375 -14.265625 C 8.179688 -14.265625 6.953125 -13.8125 6.171875 -12.90625 C 5.390625 -12 5 -10.5 5 -8.40625 L 5 0 L 2.578125 0 L 2.578125 -16.03125 L 4.546875 -16.03125 L 4.9375 -13.828125 L 5.0625 -13.828125 C 5.5625 -14.617188 6.257812 -15.234375 7.15625 -15.671875 C 8.050781 -16.109375 9.050781 -16.328125 10.15625 -16.328125 C 12.082031 -16.328125 13.53125 -15.859375 14.5 -14.921875 C 15.476562 -13.992188 15.96875 -12.503906 15.96875 -10.453125 L 15.96875 0 Z M 13.546875 0" transform="translate(352.126 410.36)"/></g></g><g><g><path d="M 16.40625 -8.03125 C 16.40625 -5.414062 15.75 -3.375 14.4375 -1.90625 C 13.125 -0.4375 11.304688 0.296875 8.984375 0.296875 C 7.546875 0.296875 6.269531 -0.0351562 5.15625 -0.703125 C 4.050781 -1.378906 3.195312 -2.347656 2.59375 -3.609375 C 1.988281 -4.867188 1.6875 -6.34375 1.6875 -8.03125 C 1.6875 -10.644531 2.335938 -12.679688 3.640625 -14.140625 C 4.953125 -15.597656 6.765625 -16.328125 9.078125 -16.328125 C 11.328125 -16.328125 13.109375 -15.578125 14.421875 -14.078125 C 15.742188 -12.585938 16.40625 -10.570312 16.40625 -8.03125 Z M 4.203125 -8.03125 C 4.203125 -5.976562 4.609375 -4.414062 5.421875 -3.34375 C 6.242188 -2.269531 7.445312 -1.734375 9.03125 -1.734375 C 10.625 -1.734375 11.832031 -2.265625 12.65625 -3.328125 C 13.476562 -4.398438 13.890625 -5.96875 13.890625 -8.03125 C 13.890625 -10.070312 13.476562 -11.617188 12.65625 -12.671875 C 11.832031 -13.734375 10.617188 -14.265625 9.015625 -14.265625 C 7.421875 -14.265625 6.21875 -13.738281 5.40625 -12.6875 C 4.601562 -11.644531 4.203125 -10.09375 4.203125 -8.03125 Z M 4.203125 -8.03125" transform="translate(370.514 410.36)"/></g></g><g><g><path d="M 15.65625 0 L 12.71875 -9.40625 C 12.539062 -9.976562 12.195312 -11.285156 11.6875 -13.328125 L 11.5625 -13.328125 C 11.175781 -11.617188 10.835938 -10.300781 10.546875 -9.375 L 7.515625 0 L 4.703125 0 L 0.34375 -16.03125 L 2.875 -16.03125 C 3.914062 -12 4.707031 -8.929688 5.25 -6.828125 C 5.789062 -4.722656 6.097656 -3.304688 6.171875 -2.578125 L 6.28125 -2.578125 C 6.394531 -3.128906 6.570312 -3.847656 6.8125 -4.734375 C 7.050781 -5.617188 7.257812 -6.316406 7.4375 -6.828125 L 10.375 -16.03125 L 13 -16.03125 L 15.875 -6.828125 C 16.414062 -5.148438 16.785156 -3.742188 16.984375 -2.609375 L 17.09375 -2.609375 C 17.132812 -2.953125 17.238281 -3.488281 17.40625 -4.21875 C 17.582031 -4.957031 18.601562 -8.894531 20.46875 -16.03125 L 22.984375 -16.03125 L 18.546875 0 Z M 15.65625 0" transform="translate(388.61 410.36)"/></g></g></g><g><g><g><path d="M 23.515625 0 L 18.359375 0 L 15.453125 -11.234375 C 15.347656 -11.628906 15.164062 -12.453125 14.90625 -13.703125 C 14.644531 -14.960938 14.5 -15.804688 14.46875 -16.234375 C 14.40625 -15.703125 14.253906 -14.851562 14.015625 -13.6875 C 13.785156 -12.53125 13.609375 -11.703125 13.484375 -11.203125 L 10.609375 0 L 5.453125 0 L 0 -21.375 L 4.453125 -21.375 L 7.203125 -9.71875 C 7.671875 -7.5625 8.015625 -5.691406 8.234375 -4.109375 C 8.296875 -4.660156 8.429688 -5.519531 8.640625 -6.6875 C 8.847656 -7.851562 9.046875 -8.757812 9.234375 -9.40625 L 12.34375 -21.375 L 16.625 -21.375 L 19.75 -9.40625 C 19.882812 -8.863281 20.050781 -8.039062 20.25 -6.9375 C 20.457031 -5.84375 20.613281 -4.898438 20.71875 -4.109375 C 20.820312 -4.867188 20.976562 -5.816406 21.1875 -6.953125 C 21.40625 -8.085938 21.601562 -9.007812 21.78125 -9.71875 L 24.5 -21.375 L 28.953125 -21.375 Z M 23.515625 0" transform="translate(131.14 452.303)"/></g></g><g><g><path d="M 17.4375 0 L 12.96875 0 L 12.96875 -9.546875 C 12.96875 -11.910156 12.09375 -13.09375 10.34375 -13.09375 C 9.09375 -13.09375 8.1875 -12.664062 7.625 -11.8125 C 7.070312 -10.96875 6.796875 -9.59375 6.796875 -7.6875 L 6.796875 0 L 2.34375 0 L 2.34375 -22.75 L 6.796875 -22.75 L 6.796875 -18.125 C 6.796875 -17.757812 6.765625 -16.910156 6.703125 -15.578125 L 6.59375 -14.265625 L 6.828125 -14.265625 C 7.828125 -15.859375 9.40625 -16.65625 11.5625 -16.65625 C 13.488281 -16.65625 14.945312 -16.140625 15.9375 -15.109375 C 16.9375 -14.078125 17.4375 -12.59375 17.4375 -10.65625 Z M 17.4375 0" transform="translate(160.103 452.303)"/></g></g><g><g><path d="M 12.71875 0 L 11.859375 -2.21875 L 11.75 -2.21875 C 11 -1.269531 10.222656 -0.613281 9.421875 -0.25 C 8.628906 0.113281 7.59375 0.296875 6.3125 0.296875 C 4.75 0.296875 3.515625 -0.148438 2.609375 -1.046875 C 1.703125 -1.953125 1.25 -3.234375 1.25 -4.890625 C 1.25 -6.617188 1.859375 -7.894531 3.078125 -8.71875 C 4.296875 -9.539062 6.128906 -10 8.578125 -10.09375 L 11.40625 -10.171875 L 11.40625 -10.890625 C 11.40625 -12.546875 10.554688 -13.375 8.859375 -13.375 C 7.554688 -13.375 6.019531 -12.984375 4.25 -12.203125 L 2.78125 -15.203125 C 4.664062 -16.191406 6.75 -16.6875 9.03125 -16.6875 C 11.226562 -16.6875 12.910156 -16.207031 14.078125 -15.25 C 15.253906 -14.300781 15.84375 -12.847656 15.84375 -10.890625 L 15.84375 0 Z M 11.40625 -7.578125 L 9.6875 -7.515625 C 8.382812 -7.472656 7.414062 -7.238281 6.78125 -6.8125 C 6.144531 -6.382812 5.828125 -5.734375 5.828125 -4.859375 C 5.828125 -3.597656 6.550781 -2.96875 8 -2.96875 C 9.03125 -2.96875 9.851562 -3.265625 10.46875 -3.859375 C 11.09375 -4.453125 11.40625 -5.242188 11.40625 -6.234375 Z M 11.40625 -7.578125" transform="translate(179.793 452.303)"/></g></g><g><g><path d="M 9.234375 -3.265625 C 10.015625 -3.265625 10.945312 -3.429688 12.03125 -3.765625 L 12.03125 -0.453125 C 10.925781 0.046875 9.5625 0.296875 7.9375 0.296875 C 6.15625 0.296875 4.859375 -0.148438 4.046875 -1.046875 C 3.234375 -1.953125 2.828125 -3.3125 2.828125 -5.125 L 2.828125 -13 L 0.6875 -13 L 0.6875 -14.890625 L 3.140625 -16.375 L 4.4375 -19.828125 L 7.28125 -19.828125 L 7.28125 -16.34375 L 11.859375 -16.34375 L 11.859375 -13 L 7.28125 -13 L 7.28125 -5.125 C 7.28125 -4.488281 7.457031 -4.019531 7.8125 -3.71875 C 8.164062 -3.414062 8.640625 -3.265625 9.234375 -3.265625 Z M 9.234375 -3.265625" transform="translate(197.888 452.303)"/></g></g><g><g><path d="M 6.03125 -21.375 L 5.421875 -13.65625 L 2.546875 -13.65625 L 1.9375 -21.375 Z M 6.03125 -21.375" transform="translate(210.893 452.303)"/></g></g><g><g><path d="M 13.75 -4.859375 C 13.75 -3.179688 13.164062 -1.898438 12 -1.015625 C 10.832031 -0.140625 9.085938 0.296875 6.765625 0.296875 C 5.578125 0.296875 4.5625 0.210938 3.71875 0.046875 C 2.882812 -0.109375 2.101562 -0.34375 1.375 -0.65625 L 1.375 -4.34375 C 2.207031 -3.957031 3.140625 -3.628906 4.171875 -3.359375 C 5.210938 -3.097656 6.128906 -2.96875 6.921875 -2.96875 C 8.535156 -2.96875 9.34375 -3.4375 9.34375 -4.375 C 9.34375 -4.726562 9.234375 -5.015625 9.015625 -5.234375 C 8.804688 -5.453125 8.4375 -5.695312 7.90625 -5.96875 C 7.382812 -6.25 6.6875 -6.578125 5.8125 -6.953125 C 4.550781 -7.472656 3.625 -7.957031 3.03125 -8.40625 C 2.445312 -8.851562 2.019531 -9.367188 1.75 -9.953125 C 1.476562 -10.535156 1.34375 -11.25 1.34375 -12.09375 C 1.34375 -13.550781 1.90625 -14.675781 3.03125 -15.46875 C 4.15625 -16.257812 5.753906 -16.65625 7.828125 -16.65625 C 9.796875 -16.65625 11.710938 -16.226562 13.578125 -15.375 L 12.234375 -12.15625 C 11.410156 -12.507812 10.640625 -12.796875 9.921875 -13.015625 C 9.210938 -13.242188 8.488281 -13.359375 7.75 -13.359375 C 6.4375 -13.359375 5.78125 -13 5.78125 -12.28125 C 5.78125 -11.882812 5.988281 -11.539062 6.40625 -11.25 C 6.832031 -10.957031 7.765625 -10.523438 9.203125 -9.953125 C 10.472656 -9.429688 11.40625 -8.945312 12 -8.5 C 12.601562 -8.050781 13.046875 -7.53125 13.328125 -6.9375 C 13.609375 -6.351562 13.75 -5.660156 13.75 -4.859375 Z M 13.75 -4.859375" transform="translate(218.865 452.303)"/></g></g><g><g><path d="M 10.8125 -12 L 19.296875 -12 L 19.296875 -0.921875 C 17.921875 -0.472656 16.625 -0.160156 15.40625 0.015625 C 14.195312 0.203125 12.957031 0.296875 11.6875 0.296875 C 8.457031 0.296875 5.988281 -0.648438 4.28125 -2.546875 C 2.582031 -4.441406 1.734375 -7.164062 1.734375 -10.71875 C 1.734375 -14.164062 2.71875 -16.851562 4.6875 -18.78125 C 6.664062 -20.71875 9.410156 -21.6875 12.921875 -21.6875 C 15.109375 -21.6875 17.222656 -21.25 19.265625 -20.375 L 17.75 -16.75 C 16.195312 -17.53125 14.578125 -17.921875 12.890625 -17.921875 C 10.929688 -17.921875 9.359375 -17.257812 8.171875 -15.9375 C 6.992188 -14.625 6.40625 -12.851562 6.40625 -10.625 C 6.40625 -8.3125 6.878906 -6.539062 7.828125 -5.3125 C 8.785156 -4.09375 10.171875 -3.484375 11.984375 -3.484375 C 12.921875 -3.484375 13.878906 -3.578125 14.859375 -3.765625 L 14.859375 -8.234375 L 10.8125 -8.234375 Z M 10.8125 -12" transform="translate(241.539 452.303)"/></g></g><g><g><path d="M 5.890625 -8.203125 C 5.890625 -6.585938 6.15625 -5.363281 6.6875 -4.53125 C 7.21875 -3.707031 8.082031 -3.296875 9.28125 -3.296875 C 10.476562 -3.296875 11.335938 -3.707031 11.859375 -4.53125 C 12.378906 -5.351562 12.640625 -6.578125 12.640625 -8.203125 C 12.640625 -9.816406 12.375 -11.03125 11.84375 -11.84375 C 11.320312 -12.65625 10.460938 -13.0625 9.265625 -13.0625 C 8.066406 -13.0625 7.203125 -12.65625 6.671875 -11.84375 C 6.148438 -11.039062 5.890625 -9.828125 5.890625 -8.203125 Z M 17.203125 -8.203125 C 17.203125 -5.546875 16.5 -3.460938 15.09375 -1.953125 C 13.6875 -0.453125 11.734375 0.296875 9.234375 0.296875 C 7.660156 0.296875 6.273438 -0.046875 5.078125 -0.734375 C 3.878906 -1.421875 2.957031 -2.40625 2.3125 -3.6875 C 1.664062 -4.976562 1.34375 -6.484375 1.34375 -8.203125 C 1.34375 -10.878906 2.039062 -12.957031 3.4375 -14.4375 C 4.832031 -15.914062 6.789062 -16.65625 9.3125 -16.65625 C 10.882812 -16.65625 12.269531 -16.3125 13.46875 -15.625 C 14.664062 -14.945312 15.585938 -13.96875 16.234375 -12.6875 C 16.878906 -11.414062 17.203125 -9.921875 17.203125 -8.203125 Z M 17.203125 -8.203125" transform="translate(263.233 452.303)"/></g></g><g><g><path d="M 2.15625 -20.578125 C 2.15625 -22.023438 2.960938 -22.75 4.578125 -22.75 C 6.191406 -22.75 7 -22.023438 7 -20.578125 C 7 -19.890625 6.796875 -19.351562 6.390625 -18.96875 C 5.992188 -18.582031 5.390625 -18.390625 4.578125 -18.390625 C 2.960938 -18.390625 2.15625 -19.117188 2.15625 -20.578125 Z M 6.796875 0 L 2.34375 0 L 2.34375 -16.34375 L 6.796875 -16.34375 Z M 6.796875 0" transform="translate(281.782 452.303)"/></g></g><g><g><path d="M 17.4375 0 L 12.96875 0 L 12.96875 -9.546875 C 12.96875 -10.722656 12.757812 -11.609375 12.34375 -12.203125 C 11.925781 -12.796875 11.257812 -13.09375 10.34375 -13.09375 C 9.09375 -13.09375 8.1875 -12.675781 7.625 -11.84375 C 7.070312 -11.007812 6.796875 -9.625 6.796875 -7.6875 L 6.796875 0 L 2.34375 0 L 2.34375 -16.34375 L 5.75 -16.34375 L 6.34375 -14.265625 L 6.59375 -14.265625 C 7.09375 -15.046875 7.773438 -15.640625 8.640625 -16.046875 C 9.515625 -16.453125 10.507812 -16.65625 11.625 -16.65625 C 13.53125 -16.65625 14.972656 -16.140625 15.953125 -15.109375 C 16.941406 -14.085938 17.4375 -12.601562 17.4375 -10.65625 Z M 17.4375 0" transform="translate(290.924 452.303)"/></g></g><g><g><path d="M 16.578125 -16.34375 L 16.578125 -14.078125 L 14.015625 -13.421875 C 14.484375 -12.691406 14.71875 -11.875 14.71875 -10.96875 C 14.71875 -9.21875 14.101562 -7.847656 12.875 -6.859375 C 11.65625 -5.878906 9.957031 -5.390625 7.78125 -5.390625 L 6.96875 -5.4375 L 6.3125 -5.515625 C 5.851562 -5.160156 5.625 -4.769531 5.625 -4.34375 C 5.625 -3.695312 6.445312 -3.375 8.09375 -3.375 L 10.859375 -3.375 C 12.660156 -3.375 14.03125 -2.988281 14.96875 -2.21875 C 15.90625 -1.445312 16.375 -0.316406 16.375 1.171875 C 16.375 3.078125 15.578125 4.554688 13.984375 5.609375 C 12.390625 6.671875 10.101562 7.203125 7.125 7.203125 C 4.84375 7.203125 3.097656 6.800781 1.890625 6 C 0.691406 5.207031 0.09375 4.09375 0.09375 2.65625 C 0.09375 1.675781 0.398438 0.851562 1.015625 0.1875 C 1.628906 -0.46875 2.53125 -0.941406 3.71875 -1.234375 C 3.257812 -1.421875 2.859375 -1.738281 2.515625 -2.1875 C 2.171875 -2.632812 2 -3.101562 2 -3.59375 C 2 -4.21875 2.179688 -4.738281 2.546875 -5.15625 C 2.910156 -5.570312 3.429688 -5.976562 4.109375 -6.375 C 3.253906 -6.75 2.570312 -7.34375 2.0625 -8.15625 C 1.5625 -8.976562 1.3125 -9.945312 1.3125 -11.0625 C 1.3125 -12.84375 1.890625 -14.21875 3.046875 -15.1875 C 4.210938 -16.164062 5.875 -16.65625 8.03125 -16.65625 C 8.488281 -16.65625 9.03125 -16.613281 9.65625 -16.53125 C 10.289062 -16.445312 10.691406 -16.382812 10.859375 -16.34375 Z M 3.953125 2.3125 C 3.953125 2.925781 4.242188 3.40625 4.828125 3.75 C 5.421875 4.101562 6.25 4.28125 7.3125 4.28125 C 8.914062 4.28125 10.171875 4.0625 11.078125 3.625 C 11.984375 3.1875 12.4375 2.585938 12.4375 1.828125 C 12.4375 1.210938 12.164062 0.785156 11.625 0.546875 C 11.09375 0.316406 10.265625 0.203125 9.140625 0.203125 L 6.828125 0.203125 C 6.015625 0.203125 5.332031 0.394531 4.78125 0.78125 C 4.226562 1.164062 3.953125 1.675781 3.953125 2.3125 Z M 5.578125 -11 C 5.578125 -10.113281 5.773438 -9.410156 6.171875 -8.890625 C 6.578125 -8.367188 7.195312 -8.109375 8.03125 -8.109375 C 8.863281 -8.109375 9.472656 -8.367188 9.859375 -8.890625 C 10.253906 -9.410156 10.453125 -10.113281 10.453125 -11 C 10.453125 -12.96875 9.644531 -13.953125 8.03125 -13.953125 C 6.394531 -13.953125 5.578125 -12.96875 5.578125 -11 Z M 5.578125 -11" transform="translate(310.614 452.303)"/></g></g><g><g><path d="M 22.09375 -10.71875 C 22.09375 -7.175781 21.210938 -4.453125 19.453125 -2.546875 C 17.703125 -0.648438 15.191406 0.296875 11.921875 0.296875 C 8.640625 0.296875 6.117188 -0.648438 4.359375 -2.546875 C 2.609375 -4.453125 1.734375 -7.1875 1.734375 -10.75 C 1.734375 -14.3125 2.613281 -17.03125 4.375 -18.90625 C 6.132812 -20.78125 8.660156 -21.71875 11.953125 -21.71875 C 15.234375 -21.71875 17.742188 -20.769531 19.484375 -18.875 C 21.222656 -16.988281 22.09375 -14.269531 22.09375 -10.71875 Z M 6.5 -10.71875 C 6.5 -8.332031 6.953125 -6.535156 7.859375 -5.328125 C 8.765625 -4.117188 10.117188 -3.515625 11.921875 -3.515625 C 15.535156 -3.515625 17.34375 -5.914062 17.34375 -10.71875 C 17.34375 -15.539062 15.546875 -17.953125 11.953125 -17.953125 C 10.148438 -17.953125 8.789062 -17.34375 7.875 -16.125 C 6.957031 -14.90625 6.5 -13.101562 6.5 -10.71875 Z M 6.5 -10.71875" transform="translate(335.321 452.303)"/></g></g><g><g><path d="M 17.4375 0 L 12.96875 0 L 12.96875 -9.546875 C 12.96875 -10.722656 12.757812 -11.609375 12.34375 -12.203125 C 11.925781 -12.796875 11.257812 -13.09375 10.34375 -13.09375 C 9.09375 -13.09375 8.1875 -12.675781 7.625 -11.84375 C 7.070312 -11.007812 6.796875 -9.625 6.796875 -7.6875 L 6.796875 0 L 2.34375 0 L 2.34375 -16.34375 L 5.75 -16.34375 L 6.34375 -14.265625 L 6.59375 -14.265625 C 7.09375 -15.046875 7.773438 -15.640625 8.640625 -16.046875 C 9.515625 -16.453125 10.507812 -16.65625 11.625 -16.65625 C 13.53125 -16.65625 14.972656 -16.140625 15.953125 -15.109375 C 16.941406 -14.085938 17.4375 -12.601562 17.4375 -10.65625 Z M 17.4375 0" transform="translate(359.165 452.303)"/></g></g></g></svg>